<svg xmlns="http://www.w3.org/2000/svg"  viewBox="0 0 100 100" width="100px" height="100px"><path fill="#fff" d="M70,82H31c-6.6,0-12-5.4-12-12V31c0-6.6,5.4-12,12-12h39c6.6,0,12,5.4,12,12v39 C82,76.6,76.6,82,70,82z"/><path fill="#1f212b" d="M69.994,82.994h-39c-7.18,0-13-5.82-13-13v-39c0-7.18,5.82-13,13-13h39c7.18,0,13,5.82,13,13v39 C82.994,77.174,77.173,82.994,69.994,82.994z M19.994,30.994v39c0,6.075,4.925,11,11,11h39c6.075,0,11-4.925,11-11v-39 c0-6.075-4.925-11-11-11h-39C24.918,19.994,19.994,24.919,19.994,30.994z"/><path fill="#1f212b" d="M67.156,77.994H33.831c-5.985,0-10.837-4.852-10.837-10.837V33.831 c0-5.985,4.852-10.837,10.837-10.837h33.663c0.276,0,0.5,0.224,0.5,0.5s-0.224,0.5-0.5,0.5H33.831 c-5.433,0-9.837,4.404-9.837,9.837v33.325c0,5.433,4.405,9.838,9.838,9.838h33.325c5.433,0,9.837-4.404,9.837-9.837V48.494 c0-0.276,0.224-0.5,0.5-0.5s0.5,0.224,0.5,0.5v18.662C77.994,73.142,73.141,77.994,67.156,77.994z M77.494,45.573 c-0.276,0-0.5-0.224-0.5-0.5v-4c0-0.276,0.224-0.5,0.5-0.5s0.5,0.224,0.5,0.5v4C77.994,45.35,77.77,45.573,77.494,45.573z M77.494,39.573c-0.276,0-0.5-0.224-0.5-0.5v-2c0-0.276,0.224-0.5,0.5-0.5s0.5,0.224,0.5,0.5v2 C77.994,39.35,77.77,39.573,77.494,39.573z"/><path fill="#f69272" stroke="#b07454" stroke-miterlimit="10" d="M50.5,48.5L50.5,48.5c-3.866,0-7-3.134-7-7v-6 c0-3.866,3.134-7,7-7h0c3.866,0,7,3.134,7,7v6C57.5,45.366,54.366,48.5,50.5,48.5z"/><path fill="#a1d3a2" stroke="#60be92" stroke-miterlimit="10" d="M52.5,50.5L52.5,50.5c0-3.866,3.134-7,7-7h6 c3.866,0,7,3.134,7,7v0c0,3.866-3.134,7-7,7h-6C55.634,57.5,52.5,54.366,52.5,50.5z"/><path fill="#78a2d2" d="M50.5,72.5L50.5,72.5c-3.866,0-7-3.134-7-7v-6c0-3.866,3.134-7,7-7h0c3.866,0,7,3.134,7,7v6 C57.5,69.366,54.366,72.5,50.5,72.5z"/><path fill="#f9e65c" stroke="#f15b6c" stroke-miterlimit="10" d="M51.914,49.086L51.914,49.086 c-2.734-2.734-2.734-7.166,0-9.899l4.243-4.243c2.734-2.734,7.166-2.734,9.899,0l0,0c2.734,2.734,2.734,7.166,0,9.899l-4.243,4.243 C59.08,51.819,54.648,51.819,51.914,49.086z"/><path fill="#00ac9c" stroke="#31aaa5" stroke-miterlimit="10" d="M66.056,66.056L66.056,66.056c2.734-2.734,2.734-7.166,0-9.899 l-4.243-4.243c-2.734-2.734-7.166-2.734-9.899,0l0,0c-2.734,2.734-2.734,7.166,0,9.899l4.243,4.243 C58.891,68.79,63.323,68.79,66.056,66.056z"/><path fill="#a3a3cd" stroke="#ef5390" stroke-miterlimit="10" d="M28.5,50.5L28.5,50.5c0-3.866,3.134-7,7-7h6 c3.866,0,7,3.134,7,7v0c0,3.866-3.134,7-7,7h-6C31.634,57.5,28.5,54.366,28.5,50.5z"/><path fill="#f15b6c" d="M49.086,49.086L49.086,49.086c2.734-2.734,2.734-7.166,0-9.899l-4.243-4.243 c-2.734-2.734-7.166-2.734-9.899,0l0,0c-2.734,2.734-2.734,7.166,0,9.899l4.243,4.243C41.92,51.819,46.352,51.819,49.086,49.086z"/><path fill="none" stroke="#1f212b" stroke-linecap="round" stroke-linejoin="round" stroke-miterlimit="10" d="M50.5,48.5L50.5,48.5 c-3.866,0-7-3.134-7-7v-6c0-3.866,3.134-7,7-7h0c3.866,0,7,3.134,7,7v6C57.5,45.366,54.366,48.5,50.5,48.5z"/><path fill="#6b6aaf" stroke="#a3a3cd" stroke-miterlimit="10" d="M34.944,66.056L34.944,66.056 c-2.734-2.734-2.734-7.166,0-9.899l4.243-4.243c2.734-2.734,7.166-2.734,9.899,0l0,0c2.734,2.734,2.734,7.166,0,9.899l-4.243,4.243 C42.109,68.79,37.677,68.79,34.944,66.056z"/><path fill="none" stroke="#1f212b" stroke-linecap="round" stroke-linejoin="round" stroke-miterlimit="10" d="M50.5,72.5L50.5,72.5 c-3.866,0-7-3.134-7-7v-6c0-3.866,3.134-7,7-7h0c3.866,0,7,3.134,7,7v6C57.5,69.366,54.366,72.5,50.5,72.5z"/><path fill="none" stroke="#1f212b" stroke-linecap="round" stroke-linejoin="round" stroke-miterlimit="10" d="M51.914,49.086 L51.914,49.086c-2.734-2.734-2.734-7.166,0-9.899l4.243-4.243c2.734-2.734,7.166-2.734,9.899,0l0,0 c2.734,2.734,2.734,7.166,0,9.899l-4.243,4.243C59.08,51.819,54.648,51.819,51.914,49.086z"/><path fill="none" stroke="#1f212b" stroke-linecap="round" stroke-linejoin="round" stroke-miterlimit="10" d="M34.944,66.056 L34.944,66.056c-2.734-2.734-2.734-7.166,0-9.899l4.243-4.243c2.734-2.734,7.166-2.734,9.899,0l0,0 c2.734,2.734,2.734,7.166,0,9.899l-4.243,4.243C42.109,68.79,37.677,68.79,34.944,66.056z"/><path fill="none" stroke="#1f212b" stroke-linecap="round" stroke-linejoin="round" stroke-miterlimit="10" d="M49.086,49.086 L49.086,49.086c2.734-2.734,2.734-7.166,0-9.899l-4.243-4.243c-2.734-2.734-7.166-2.734-9.899,0l0,0 c-2.734,2.734-2.734,7.166,0,9.899l4.243,4.243C41.92,51.819,46.352,51.819,49.086,49.086z"/><path fill="none" stroke="#1f212b" stroke-linecap="round" stroke-linejoin="round" stroke-miterlimit="10" d="M66.056,66.056 L66.056,66.056c2.734-2.734,2.734-7.166,0-9.899l-4.243-4.243c-2.734-2.734-7.166-2.734-9.899,0l0,0 c-2.734,2.734-2.734,7.166,0,9.899l4.243,4.243C58.891,68.79,63.323,68.79,66.056,66.056z"/><path fill="none" stroke="#1f212b" stroke-linecap="round" stroke-linejoin="round" stroke-miterlimit="10" d="M52.5,50.5L52.5,50.5 c0-3.866,3.134-7,7-7h6c3.866,0,7,3.134,7,7v0c0,3.866-3.134,7-7,7h-6C55.634,57.5,52.5,54.366,52.5,50.5z"/><path fill="none" stroke="#1f212b" stroke-linecap="round" stroke-linejoin="round" stroke-miterlimit="10" d="M28.5,50.5L28.5,50.5 c0-3.866,3.134-7,7-7h6c3.866,0,7,3.134,7,7v0c0,3.866-3.134,7-7,7h-6C31.634,57.5,28.5,54.366,28.5,50.5z"/></svg>